<svg width="343" height="183" viewBox="0 0 343 183" fill="none" xmlns="http://www.w3.org/2000/svg">
<g clip-path="url(#clip0_481_205)">
<ellipse cx="101.744" cy="166.831" rx="138.881" ry="141.919" fill="#FFF7DE"/>
<ellipse cx="74.5561" cy="148.75" rx="138.881" ry="141.919" fill="#FFF7DE"/>
<g filter="url(#filter0_d_481_205)">
<path d="M114.625 64.75C114.625 61.4363 117.311 58.75 120.625 58.75H240.625C243.939 58.75 246.625 61.4363 246.625 64.75V148.75H114.625V64.75Z" fill="#52A3FF"/>
<path d="M195.167 106.381L183.214 98.5029L171.27 90.625V106.381V122.125L183.214 114.247L195.167 106.381Z" fill="#FFFFF9"/>
<rect x="115" y="155.5" width="131.625" height="27.75" fill="#52A3FF"/>
<circle cx="130" cy="169.375" r="3.375" fill="white"/>
<path d="M132.625 169.75H234.625" stroke="white" stroke-width="2.25" stroke-linecap="round"/>
</g>
<circle cx="263.829" cy="137.9" r="21.685" fill="#009858"/>
<path d="M262.851 119.903C266.107 119.903 268.747 117.251 268.747 113.981C268.747 110.71 266.107 113.981 262.851 113.981C259.594 113.981 256.954 110.71 256.954 113.981C256.954 117.251 259.594 119.903 262.851 119.903Z" fill="#FFA194"/>
<path d="M239.963 148.194H286.63L283.713 183.25H243.852L239.963 148.194Z" fill="#C57B00"/>
<rect x="235.907" y="145.944" width="54.375" height="9.55556" fill="#F6A92A"/>
<circle cx="248.282" cy="134.337" r="1.875" fill="#41CC90"/>
<circle cx="268.02" cy="132.462" r="1.875" fill="#41CC90"/>
<circle cx="249.42" cy="142.363" r="1.13738" fill="#41CC90"/>
<circle cx="251.295" cy="125.125" r="1.13738" fill="#41CC90"/>
<circle cx="258.05" cy="135.475" r="1.13738" fill="#41CC90"/>
<circle cx="261.22" cy="125.5" r="1.875" fill="#41CC90"/>
<g filter="url(#filter1_d_481_205)">
<circle cx="105.181" cy="44.3341" r="34.4512" fill="#F8EDED"/>
<path d="M104.738 78.459C85.8217 78.459 70.4375 63.009 70.4375 44.019C70.4375 25.029 85.8217 9.57153 104.738 9.57153C123.655 9.57153 139.039 25.0215 139.039 44.019C139.039 63.0165 123.655 78.4665 104.738 78.4665V78.459ZM104.738 16.8015C89.7947 16.8015 77.6442 29.0115 77.6442 44.0115C77.6442 59.0115 89.8022 71.2215 104.738 71.2215C119.674 71.2215 131.832 59.0115 131.832 44.0115C131.832 29.0115 119.674 16.8015 104.738 16.8015Z" fill="#FF8675"/>
<path d="M104.985 27.9016C104.291 27.9016 103.73 27.3391 103.73 26.6416V21.6616C103.73 20.9641 104.291 20.4016 104.985 20.4016C105.68 20.4016 106.24 20.9641 106.24 21.6616V26.6416C106.24 27.3391 105.68 27.9016 104.985 27.9016Z" fill="#7DBBF4"/>
<path d="M104.985 67.6367C104.291 67.6367 103.73 67.0742 103.73 66.3767V61.3967C103.73 60.6992 104.291 60.1367 104.985 60.1367C105.68 60.1367 106.24 60.6992 106.24 61.3967V66.3767C106.24 67.0742 105.68 67.6367 104.985 67.6367Z" fill="#7DBBF4"/>
<path d="M92.7521 32.9866C92.431 32.9866 92.1098 32.8666 91.8634 32.6191L88.3609 29.1016C87.868 28.6066 87.868 27.8116 88.3609 27.3166C88.8538 26.8216 89.6454 26.8216 90.1383 27.3166L93.6408 30.8341C94.1337 31.3291 94.1337 32.1241 93.6408 32.6191C93.3944 32.8666 93.0732 32.9866 92.7521 32.9866Z" fill="#7DBBF4"/>
<path d="M120.728 61.089C120.407 61.089 120.085 60.969 119.839 60.7215L116.336 57.1965C115.844 56.7015 115.844 55.9065 116.336 55.4115C116.829 54.9165 117.621 54.9165 118.114 55.4115L121.616 58.9365C122.109 59.4315 122.109 60.2265 121.616 60.7215C121.37 60.969 121.049 61.089 120.728 61.089Z" fill="#7DBBF4"/>
<path d="M87.6812 45.279H82.7224C82.0279 45.279 81.4678 44.7165 81.4678 44.019C81.4678 43.3215 82.0279 42.759 82.7224 42.759H87.6812C88.3757 42.759 88.9358 43.3215 88.9358 44.019C88.9358 44.7165 88.3757 45.279 87.6812 45.279Z" fill="#7DBBF4"/>
<path d="M127.254 45.279H122.296C121.601 45.279 121.041 44.7165 121.041 44.019C121.041 43.3215 121.601 42.759 122.296 42.759H127.254C127.949 42.759 128.509 43.3215 128.509 44.019C128.509 44.7165 127.949 45.279 127.254 45.279Z" fill="#7DBBF4"/>
<path d="M89.2418 61.089C88.9206 61.089 88.5995 60.969 88.3531 60.7215C87.8602 60.2265 87.8602 59.4315 88.3531 58.9365L91.8556 55.4115C92.3485 54.9165 93.1401 54.9165 93.633 55.4115C94.1259 55.9065 94.1259 56.7015 93.633 57.1965L90.1305 60.7215C89.884 60.969 89.5629 61.089 89.2418 61.089Z" fill="#7DBBF4"/>
<path d="M117.225 32.9866C116.904 32.9866 116.583 32.8666 116.336 32.6191C115.844 32.1241 115.844 31.3291 116.336 30.8341L119.839 27.3166C120.332 26.8216 121.123 26.8216 121.616 27.3166C122.109 27.8116 122.109 28.6066 121.616 29.1016L118.114 32.6191C117.867 32.8666 117.546 32.9866 117.225 32.9866Z" fill="#7DBBF4"/>
<path d="M116.672 45.654H104.798C104.103 45.654 103.543 45.0915 103.543 44.394V32.469C103.543 31.7715 104.103 31.209 104.798 31.209C105.492 31.209 106.052 31.7715 106.052 32.469V43.134H116.672C117.366 43.134 117.926 43.6965 117.926 44.394C117.926 45.0915 117.366 45.654 116.672 45.654Z" fill="#0069E0"/>
<path d="M108.039 4.83911H101.437C100.745 4.83911 100.183 5.40323 100.183 6.09911V9.48161C100.183 10.1775 100.745 10.7416 101.437 10.7416H108.039C108.732 10.7416 109.294 10.1775 109.294 9.48161V6.09911C109.294 5.40323 108.732 4.83911 108.039 4.83911Z" fill="#FF8675"/>
<path d="M106.843 2.5H102.633C102.191 2.5 101.833 2.85974 101.833 3.30351V5.46056C101.833 5.90432 102.191 6.26407 102.633 6.26407H106.843C107.285 6.26407 107.643 5.90432 107.643 5.46056V3.30351C107.643 2.85974 107.285 2.5 106.843 2.5Z" fill="#FF8675"/>
</g>
<g filter="url(#filter2_d_481_205)">
<path fill-rule="evenodd" clip-rule="evenodd" d="M40.0977 93.7065C36.7839 93.7065 34.0977 96.3928 34.0977 99.7065V147.707C34.0977 151.02 36.784 153.707 40.0977 153.707H100.702V162.031L112.718 168.968L124.734 162.031V153.707H131.365C134.679 153.707 137.365 151.02 137.365 147.707V99.7065C137.365 96.3928 134.679 93.7065 131.365 93.7065H40.0977Z" fill="white"/>
<g clip-path="url(#clip1_481_205)">
<rect x="43.3252" y="108.687" width="31.5423" height="30.0403" rx="15.0202" fill="#E9F1FB"/>
<path fill-rule="evenodd" clip-rule="evenodd" d="M65.1046 119.201C65.1046 122.519 62.4147 125.209 59.0965 125.209C55.7783 125.209 53.0884 122.519 53.0884 119.201C53.0884 115.883 55.7783 113.193 59.0965 113.193C62.4147 113.193 65.1046 115.883 65.1046 119.201ZM59.0965 126.711C66.5624 126.711 72.6147 132.091 72.6147 138.727H45.5784C45.5784 132.091 51.6306 126.711 59.0965 126.711Z" fill="#7DBBF4"/>
</g>
<path d="M85.3428 115.457H124.343" stroke="#7DBBF4" stroke-width="2.25" stroke-linecap="round"/>
<path d="M85.3428 123.707H124.343" stroke="#7DBBF4" stroke-width="2.25" stroke-linecap="round"/>
<path d="M85.3428 131.957H124.343" stroke="#7DBBF4" stroke-width="2.25" stroke-linecap="round"/>
</g>
<g filter="url(#filter3_d_481_205)">
<rect x="218.145" y="23.4316" width="49.875" height="48" rx="6" fill="#E9F1FB"/>
</g>
<g clip-path="url(#clip2_481_205)">
<path d="M254.617 47.307C254.617 45.9024 254.354 44.5589 253.894 43.312L257.158 42.1009C256.551 40.4469 255.667 38.9202 254.536 37.5716L251.884 39.8311C251.02 38.8031 249.98 37.9278 248.808 37.251L250.54 34.2128C249.015 33.3324 247.368 32.7319 245.635 32.4316L245.044 35.882C244.403 35.7701 243.751 35.6988 243.08 35.6988C242.408 35.6988 241.706 35.7701 241.044 35.8922L240.438 32.4469C238.71 32.7573 237.063 33.3629 235.543 34.2586L237.291 37.2866C236.129 37.9685 235.088 38.8439 234.23 39.882L231.567 37.6377C230.441 38.9965 229.567 40.5283 228.971 42.1874L232.244 43.3782C231.8 44.6148 231.547 45.938 231.547 47.3222C231.547 47.3324 231.547 47.3375 231.547 47.3477H228.082C228.082 49.1288 228.39 50.8642 228.991 52.5182L232.26 51.312C232.729 52.5945 233.401 53.7752 234.26 54.7981L231.603 57.0525C232.734 58.4062 234.078 59.536 235.593 60.4164L237.331 57.3833C238.478 58.05 239.741 58.5232 241.089 58.7573L240.493 62.2077C241.342 62.3553 242.211 62.4316 243.08 62.4316C243.948 62.4316 244.837 62.3553 245.696 62.2026L245.095 58.7523C246.444 58.5131 247.707 58.0398 248.848 57.368L250.591 60.4011C252.106 59.5156 253.445 58.3808 254.571 57.0271L251.914 54.7777C252.773 53.7497 253.445 52.569 253.91 51.2866L257.178 52.4876C257.774 50.8337 258.077 49.0932 258.077 47.3222V47.2713L254.612 47.307H254.617Z" fill="#7DBBF4"/>
<path d="M243.08 54.0042C239.483 54.0042 236.559 51.0576 236.559 47.4342C236.559 47.0017 236.907 46.6505 237.337 46.6505C237.766 46.6505 238.114 47.0017 238.114 47.4342C238.114 50.1925 240.342 52.4368 243.08 52.4368C245.818 52.4368 248.045 50.1925 248.045 47.4342C248.045 44.676 245.818 42.4317 243.08 42.4317C242.651 42.4317 242.302 42.0805 242.302 41.648C242.302 41.2154 242.651 40.8643 243.08 40.8643C246.676 40.8643 249.601 43.8108 249.601 47.4342C249.601 51.0576 246.676 54.0042 243.08 54.0042Z" fill="#E9F1FB"/>
<path d="M242.302 47.429C242.302 46.9964 242.65 46.6453 243.079 46.6453C243.509 46.6453 243.857 46.9964 243.857 47.429C243.857 47.8615 243.509 48.2127 243.079 48.2127C242.65 48.2127 242.302 47.8615 242.302 47.429Z" fill="#E9F1FB"/>
</g>
<circle cx="300.625" cy="92.5403" r="24" fill="#1D67AC"/>
<path fill-rule="evenodd" clip-rule="evenodd" d="M309.004 92.4624V96.7745C309.007 97.1727 308.765 97.5372 308.381 97.7128C303.479 99.9956 297.711 99.9956 292.809 97.7128C292.444 97.5249 292.222 97.1629 292.234 96.7745V92.4177L300.248 95.7691C300.402 95.8346 300.569 95.8689 300.739 95.8696C300.912 95.8705 301.084 95.8362 301.242 95.7691L309.004 92.4624ZM314.287 88.1615L301.11 82.576C300.798 82.445 300.44 82.445 300.128 82.576L286.951 88.1615C286.524 88.343 286.25 88.7404 286.25 89.1781C286.25 89.6158 286.524 90.0132 286.951 90.1946L289.838 91.4123V96.7744C289.831 98.0187 290.584 99.1584 291.779 99.7124C297.349 102.288 303.889 102.288 309.459 99.7124C310.654 99.1584 311.407 98.0187 311.4 96.7744V91.4123L314.299 90.1723C314.726 89.9908 315 89.5934 315 89.1557C315 88.718 314.726 88.3206 314.299 88.1392L314.287 88.1615Z" fill="#7DBBF4"/>
<g filter="url(#filter4_d_481_205)">
<circle cx="42.0607" cy="61.2148" r="18.5353" fill="#81E5B2"/>
<path fill-rule="evenodd" clip-rule="evenodd" d="M47.2048 56.4482L47.7997 63.5898H50.373V65.9648H47.998H36.123H33.748V63.5898H36.3202L36.9151 56.4482C37.1384 53.7728 39.3756 51.7148 42.0605 51.7148C44.7443 51.7148 46.9815 53.7728 47.2048 56.4482ZM45.623 67.1522C45.623 69.1201 44.0285 70.7147 42.0605 70.7147C40.0926 70.7147 38.498 69.1201 38.498 67.1522H45.623Z" fill="#27BC71"/>
</g>
<path d="M206.644 7L191.807 7" stroke="#52A3FF" stroke-width="2.25" stroke-linecap="round"/>
<path d="M199.226 14.4502L199.226 -0.450161" stroke="#52A3FF" stroke-width="2.25" stroke-linecap="round"/>
<path d="M313.66 159.585L303.864 159.585" stroke="#52A3FF" stroke-width="2.25" stroke-linecap="round"/>
<path d="M308.762 164.504L308.762 154.666" stroke="#52A3FF" stroke-width="2.25" stroke-linecap="round"/>
<path d="M26.2012 160.419L16.4052 160.419" stroke="#52A3FF" stroke-width="2.25" stroke-linecap="round"/>
<path d="M21.3027 165.338L21.3027 155.5" stroke="#52A3FF" stroke-width="2.25" stroke-linecap="round"/>
<path d="M66.3428 8.88208L56.5468 8.88208" stroke="#52A3FF" stroke-width="2.25" stroke-linecap="round"/>
<path d="M61.4443 13.801L61.4443 3.96318" stroke="#52A3FF" stroke-width="2.25" stroke-linecap="round"/>
<circle cx="165.546" cy="40.864" r="2.92115" fill="#0069E0"/>
<circle cx="10.0129" cy="87.9287" r="2.92115" fill="#0069E0"/>
<circle cx="325.146" cy="38.3499" r="2.92115" fill="#0069E0"/>
<circle cx="339.703" cy="122.204" r="2.92115" fill="#0069E0"/>
</g>
<defs>
<filter id="filter0_d_481_205" x="108.625" y="52.75" width="144" height="136.5" filterUnits="userSpaceOnUse" color-interpolation-filters="sRGB">
<feFlood flood-opacity="0" result="BackgroundImageFix"/>
<feColorMatrix in="SourceAlpha" type="matrix" values="0 0 0 0 0 0 0 0 0 0 0 0 0 0 0 0 0 0 127 0" result="hardAlpha"/>
<feOffset/>
<feGaussianBlur stdDeviation="3"/>
<feColorMatrix type="matrix" values="0 0 0 0 0 0 0 0 0 0 0 0 0 0 0 0 0 0 0.16 0"/>
<feBlend mode="normal" in2="BackgroundImageFix" result="effect1_dropShadow_481_205"/>
<feBlend mode="normal" in="SourceGraphic" in2="effect1_dropShadow_481_205" result="shape"/>
</filter>
<filter id="filter1_d_481_205" x="64.4375" y="-3.5" width="81.1946" height="88.2854" filterUnits="userSpaceOnUse" color-interpolation-filters="sRGB">
<feFlood flood-opacity="0" result="BackgroundImageFix"/>
<feColorMatrix in="SourceAlpha" type="matrix" values="0 0 0 0 0 0 0 0 0 0 0 0 0 0 0 0 0 0 127 0" result="hardAlpha"/>
<feOffset/>
<feGaussianBlur stdDeviation="3"/>
<feColorMatrix type="matrix" values="0 0 0 0 0 0 0 0 0 0 0 0 0 0 0 0 0 0 0.08 0"/>
<feBlend mode="normal" in2="BackgroundImageFix" result="effect1_dropShadow_481_205"/>
<feBlend mode="normal" in="SourceGraphic" in2="effect1_dropShadow_481_205" result="shape"/>
</filter>
<filter id="filter2_d_481_205" x="28.0977" y="87.7065" width="115.267" height="87.2617" filterUnits="userSpaceOnUse" color-interpolation-filters="sRGB">
<feFlood flood-opacity="0" result="BackgroundImageFix"/>
<feColorMatrix in="SourceAlpha" type="matrix" values="0 0 0 0 0 0 0 0 0 0 0 0 0 0 0 0 0 0 127 0" result="hardAlpha"/>
<feOffset/>
<feGaussianBlur stdDeviation="3"/>
<feColorMatrix type="matrix" values="0 0 0 0 0 0 0 0 0 0 0 0 0 0 0 0 0 0 0.08 0"/>
<feBlend mode="normal" in2="BackgroundImageFix" result="effect1_dropShadow_481_205"/>
<feBlend mode="normal" in="SourceGraphic" in2="effect1_dropShadow_481_205" result="shape"/>
</filter>
<filter id="filter3_d_481_205" x="212.145" y="17.4316" width="61.875" height="60" filterUnits="userSpaceOnUse" color-interpolation-filters="sRGB">
<feFlood flood-opacity="0" result="BackgroundImageFix"/>
<feColorMatrix in="SourceAlpha" type="matrix" values="0 0 0 0 0 0 0 0 0 0 0 0 0 0 0 0 0 0 127 0" result="hardAlpha"/>
<feOffset/>
<feGaussianBlur stdDeviation="3"/>
<feColorMatrix type="matrix" values="0 0 0 0 0 0 0 0 0 0 0 0 0 0 0 0 0 0 0.08 0"/>
<feBlend mode="normal" in2="BackgroundImageFix" result="effect1_dropShadow_481_205"/>
<feBlend mode="normal" in="SourceGraphic" in2="effect1_dropShadow_481_205" result="shape"/>
</filter>
<filter id="filter4_d_481_205" x="17.5254" y="36.6794" width="49.0706" height="49.0706" filterUnits="userSpaceOnUse" color-interpolation-filters="sRGB">
<feFlood flood-opacity="0" result="BackgroundImageFix"/>
<feColorMatrix in="SourceAlpha" type="matrix" values="0 0 0 0 0 0 0 0 0 0 0 0 0 0 0 0 0 0 127 0" result="hardAlpha"/>
<feOffset/>
<feGaussianBlur stdDeviation="3"/>
<feColorMatrix type="matrix" values="0 0 0 0 0 0 0 0 0 0 0 0 0 0 0 0 0 0 0.08 0"/>
<feBlend mode="normal" in2="BackgroundImageFix" result="effect1_dropShadow_481_205"/>
<feBlend mode="normal" in="SourceGraphic" in2="effect1_dropShadow_481_205" result="shape"/>
</filter>
<clipPath id="clip0_481_205">
<rect width="342" height="183" fill="white" transform="translate(0.5)"/>
</clipPath>
<clipPath id="clip1_481_205">
<rect x="43.3252" y="108.687" width="31.5423" height="30.0403" rx="15.0202" fill="white"/>
</clipPath>
<clipPath id="clip2_481_205">
<rect width="30" height="30" fill="white" transform="translate(228.082 32.4316)"/>
</clipPath>
</defs>
</svg>
